<svg width="31" height="31" viewBox="0 0 31 31" fill="none" xmlns="http://www.w3.org/2000/svg">
<path fill-rule="evenodd" clip-rule="evenodd" d="M15.7188 30.5C24.003 30.5 30.7188 23.7843 30.7188 15.5C30.7188 7.21573 24.003 0.5 15.7188 0.5C7.43448 0.5 0.71875 7.21573 0.71875 15.5C0.71875 23.7843 7.43448 30.5 15.7188 30.5ZM18.696 7.33389C18.7651 7.40489 19.2636 8.16867 19.8038 9.03115C20.344 9.89362 20.7975 10.6114 20.8116 10.6262C20.8257 10.6411 20.8666 10.613 20.9024 10.5639C21.0158 10.4086 21.6039 10.0859 21.7733 10.0859C22.0605 10.086 22.2509 10.262 22.6545 10.9002C23.0872 11.5842 23.1485 11.7741 23.0182 12.0264C22.9167 12.223 22.4889 12.5534 22.2728 12.6021C22.1911 12.6205 22.1243 12.6561 22.1243 12.6812C22.1243 12.7358 22.5709 13.4695 23.4727 14.8961C24.2099 16.0624 24.2734 16.2393 24.071 16.5622C23.9507 16.7543 23.7749 16.8448 23.522 16.8448C23.2221 16.8448 23.0798 16.7131 22.6655 16.0522C22.4447 15.7 21.731 14.5723 21.0794 13.5463C20.4278 12.5202 19.5288 11.0968 19.0817 10.383C18.6345 9.66922 18.1158 8.84189 17.929 8.54449C17.7188 8.20988 17.5892 7.94503 17.589 7.84969C17.5886 7.63118 17.7262 7.36866 17.8995 7.25732C18.1112 7.12127 18.528 7.16134 18.696 7.33389ZM19.6985 13.1139C19.9889 13.1947 20.1543 13.3996 20.1492 13.6723C20.1449 13.8991 19.0148 23.0302 18.9606 23.2759C18.9446 23.3482 18.8388 23.5003 18.7255 23.6139L18.5193 23.8203H14.8386L14.6755 23.8203L14.4297 23.8203H14.4296C11.3904 23.8206 11.0113 23.8207 10.8326 23.6314C10.8071 23.6045 10.7857 23.5736 10.7612 23.5384L10.7612 23.5384L10.7608 23.5378L10.7607 23.5376L10.7524 23.5257L10.7488 23.5206L10.7379 23.5052L10.7263 23.4892L10.7221 23.4835L10.7161 23.4753C10.627 23.3499 10.6028 23.1782 9.92 18.3343L9.91999 18.3342L9.91997 18.3341L9.8358 17.737L9.406 14.6884C9.3331 14.1715 9.27344 13.6928 9.27344 13.6246C9.27344 13.453 9.51755 13.1786 9.72338 13.1189C9.96279 13.0496 19.4499 13.0448 19.6985 13.1139ZM17.3471 14.9653C17.3901 14.8685 17.5046 14.7408 17.6015 14.6817C17.8818 14.5105 18.14 14.555 18.3541 14.8114C18.5035 14.9903 18.5181 15.2006 18.4315 15.9255C18.3871 16.2973 18.2156 17.7573 18.0503 19.1699C17.8717 20.6963 17.7174 21.8099 17.67 21.9145C17.5602 22.1564 17.2889 22.3191 17.0538 22.2838C16.8404 22.2517 16.5867 22.0304 16.5372 21.833C16.4888 21.6399 17.2502 15.1836 17.3471 14.9653ZM14.3033 14.7618C14.2125 14.8652 14.1216 15.039 14.1012 15.1479C14.0808 15.2569 14.0758 16.7965 14.09 18.5693L14.0917 18.7741V18.7741C14.1141 21.5784 14.1173 21.9827 14.3168 22.1433C14.3504 22.1703 14.3896 22.1904 14.4353 22.2139L14.4354 22.2139L14.4445 22.2186L14.4552 22.2242C14.7481 22.3758 15.0241 22.2964 15.2158 22.0052C15.3161 21.8527 15.3202 21.7167 15.3205 18.4788C15.3209 14.8595 15.3206 14.8555 15.0446 14.6619C14.9755 14.6134 14.8175 14.5737 14.6935 14.5737C14.5038 14.5737 14.4421 14.6035 14.3033 14.7618ZM11.1568 17.3044C10.8832 14.9925 10.8863 14.8947 11.2399 14.6729C11.6032 14.4449 12.0925 14.742 12.159 15.2308C12.1766 15.3601 12.2878 16.2932 12.4062 17.3044C12.5246 18.3156 12.6699 19.5388 12.7291 20.0226C12.9053 21.4641 12.9191 21.7708 12.8163 21.9698C12.7268 22.1431 12.487 22.3062 12.3215 22.3062C12.154 22.3062 11.8875 22.1423 11.7922 21.9807C11.6972 21.8196 11.6499 21.4716 11.1568 17.3044ZM13.5998 8.27921C14.4556 8.23317 15.3767 8.60134 15.9145 9.20449C16.4164 9.76726 16.6654 10.4539 16.6611 11.2624C16.6591 11.628 16.5516 12.341 16.5094 12.268C16.5053 12.2609 16.4765 12.1 16.4454 11.9105C16.2163 10.5151 15.4719 9.7341 14.3021 9.66178C14.0245 9.64464 13.6341 9.66577 13.5726 9.70128C13.5588 9.7092 13.5635 9.91107 13.5829 10.1499C13.6028 10.3955 13.6019 10.5836 13.5809 10.583C13.5604 10.5823 13.5379 10.5719 13.5308 10.5597C13.5238 10.5475 13.3723 10.4366 13.1941 10.3132C12.5669 9.87867 11.8226 9.35011 11.7929 9.31815C11.7611 9.28383 11.8428 9.18254 12.8076 8.06081C13.0981 7.72312 13.3425 7.44867 13.3508 7.45089C13.3592 7.45309 13.3787 7.63133 13.3942 7.8469C13.4098 8.06251 13.4288 8.24979 13.4365 8.26308C13.4442 8.27637 13.5176 8.28366 13.5998 8.27921Z" fill="#C42131"/>
</svg>
