<svg width="31" height="31" viewBox="0 0 31 31" fill="none" xmlns="http://www.w3.org/2000/svg">
<path fill-rule="evenodd" clip-rule="evenodd" d="M15.7799 30.5C24.0642 30.5 30.7799 23.7843 30.7799 15.5C30.7799 7.21573 24.0642 0.5 15.7799 0.5C7.49564 0.5 0.779907 7.21573 0.779907 15.5C0.779907 23.7843 7.49564 30.5 15.7799 30.5ZM16.3272 7.892H15.2404C11.3387 7.892 8.17582 11.0549 8.17582 14.9566V23.108H16.3272C20.2289 23.108 23.3918 19.9451 23.3918 16.0434V14.9566C23.3918 11.0549 20.2289 7.892 16.3272 7.892ZM15.2404 6.26172C10.4384 6.26172 6.54553 10.1545 6.54553 14.9566V23.108V24.7383H8.17582H16.3272C21.1293 24.7383 25.0221 20.8455 25.0221 16.0434V14.9566C25.0221 10.1545 21.1293 6.26172 16.3272 6.26172H15.2404ZM12.5228 15.2292C12.5228 15.6794 12.1578 16.0443 11.7076 16.0443C11.2574 16.0443 10.8925 15.6794 10.8925 15.2292C10.8925 14.779 11.2574 14.414 11.7076 14.414C12.1578 14.414 12.5228 14.779 12.5228 15.2292ZM15.5106 16.0443C15.9608 16.0443 16.3258 15.6794 16.3258 15.2292C16.3258 14.779 15.9608 14.414 15.5106 14.414C15.0604 14.414 14.6955 14.779 14.6955 15.2292C14.6955 15.6794 15.0604 16.0443 15.5106 16.0443ZM20.1335 15.2292C20.1335 15.6794 19.7685 16.0443 19.3183 16.0443C18.8681 16.0443 18.5032 15.6794 18.5032 15.2292C18.5032 14.779 18.8681 14.414 19.3183 14.414C19.7685 14.414 20.1335 14.779 20.1335 15.2292Z" fill="#C42131"/>
</svg>
