<svg width="31" height="31" viewBox="0 0 31 31" fill="none" xmlns="http://www.w3.org/2000/svg">
<path fill-rule="evenodd" clip-rule="evenodd" d="M15.9688 30.25C24.253 30.25 30.9688 23.5343 30.9688 15.25C30.9688 6.96573 24.253 0.25 15.9688 0.25C7.68448 0.25 0.96875 6.96573 0.96875 15.25C0.96875 23.5343 7.68448 30.25 15.9688 30.25ZM23.5078 15.5518C23.5078 19.7176 20.1308 23.0946 15.965 23.0946H15.9642V8.00897H15.965C20.1308 8.00897 23.5078 11.386 23.5078 15.5518ZM26.5078 15.5518C26.5078 21.3744 21.7876 26.0946 15.965 26.0946C10.1423 26.0946 5.42215 21.3744 5.42215 15.5518C5.42215 9.72916 10.1423 5.00897 15.965 5.00897C21.7876 5.00897 26.5078 9.72916 26.5078 15.5518ZM20.3327 15.5526C20.3327 17.9652 18.3769 19.9211 15.9642 19.9211V11.1841C18.3769 11.1841 20.3327 13.1399 20.3327 15.5526ZM11.5263 15.551C11.5263 17.9636 13.4822 19.9195 15.8948 19.9195V11.1825C13.4822 11.1825 11.5263 13.1383 11.5263 15.551Z" fill="#C42131"/>
</svg>
