<svg width="31" height="31" viewBox="0 0 31 31" fill="none" xmlns="http://www.w3.org/2000/svg">
<path fill-rule="evenodd" clip-rule="evenodd" d="M15.5 30.1523C23.7843 30.1523 30.5 23.4366 30.5 15.1523C30.5 6.86807 23.7843 0.152344 15.5 0.152344C7.21573 0.152344 0.5 6.86807 0.5 15.1523C0.5 23.4366 7.21573 30.1523 15.5 30.1523ZM15.5017 22.3957C19.5012 22.3957 22.7433 19.1535 22.7433 15.1541C22.7433 11.1547 19.5012 7.91248 15.5017 7.91248C11.5023 7.91248 8.26014 11.1547 8.26014 15.1541C8.26014 19.1535 11.5023 22.3957 15.5017 22.3957ZM15.5017 25.3957C21.158 25.3957 25.7433 20.8104 25.7433 15.1541C25.7433 9.4978 21.158 4.91248 15.5017 4.91248C9.84546 4.91248 5.26014 9.4978 5.26014 15.1541C5.26014 20.8104 9.84546 25.3957 15.5017 25.3957ZM19.9789 15.1517C19.9789 17.6244 17.9744 19.6289 15.5017 19.6289C13.0291 19.6289 11.0246 17.6244 11.0246 15.1517C11.0246 12.6791 13.0291 10.6746 15.5017 10.6746C17.9744 10.6746 19.9789 12.6791 19.9789 15.1517Z" fill="#C42131"/>
</svg>
