<svg width="31" height="31" viewBox="0 0 31 31" fill="none" xmlns="http://www.w3.org/2000/svg">
<path fill-rule="evenodd" clip-rule="evenodd" d="M15.8505 30.5C24.1348 30.5 30.8505 23.7843 30.8505 15.5C30.8505 7.21573 24.1348 0.5 15.8505 0.5C7.56625 0.5 0.850525 7.21573 0.850525 15.5C0.850525 23.7843 7.56625 30.5 15.8505 30.5ZM22.9325 8.73809H21.7863C21.4244 7.92353 20.6084 7.35547 19.6596 7.35547C18.7108 7.35547 17.8947 7.92353 17.5328 8.73809H8.7678C8.15333 8.73809 7.65521 9.23621 7.65521 9.85068C7.65521 10.4651 8.15333 10.9633 8.7678 10.9633H17.7184C18.1347 11.5924 18.8487 12.0074 19.6596 12.0074C20.4705 12.0074 21.1845 11.5924 21.6008 10.9633H22.9325C23.547 10.9633 24.0451 10.4651 24.0451 9.85068C24.0451 9.23621 23.547 8.73809 22.9325 8.73809ZM22.9325 14.5566C23.547 14.5566 24.0451 15.0548 24.0451 15.6692C24.0451 16.2837 23.547 16.7818 22.9325 16.7818H13.982C13.5657 17.411 12.8517 17.826 12.0407 17.826C11.2298 17.826 10.5158 17.411 10.0995 16.7818H8.76779C8.15333 16.7818 7.65521 16.2837 7.65521 15.6692C7.65521 15.0548 8.15333 14.5566 8.7678 14.5566H9.914C10.2759 13.7421 11.092 13.174 12.0407 13.174C12.9895 13.174 13.8056 13.7421 14.1675 14.5566H22.9325ZM21.7863 20.3752H22.9325C23.547 20.3752 24.0451 20.8733 24.0451 21.4878C24.0451 22.1022 23.547 22.6004 22.9325 22.6004H21.6008C21.1845 23.2295 20.4705 23.6445 19.6596 23.6445C18.8487 23.6445 18.1347 23.2295 17.7184 22.6004H8.7678C8.15333 22.6004 7.65521 22.1022 7.65521 21.4878C7.65521 20.8733 8.15333 20.3752 8.7678 20.3752H17.5328C17.8947 19.5606 18.7108 18.9926 19.6596 18.9926C20.6084 18.9926 21.4244 19.5606 21.7863 20.3752Z" fill="#C4222D"/>
</svg>
