<svg width="104" height="31" viewBox="0 0 104 31" fill="none" xmlns="http://www.w3.org/2000/svg">
<rect x="0.679688" y="0.460938" width="102.836" height="30" rx="15" fill="#C42131"/>
<path d="M25.5688 20.4859C25.7021 20.7026 25.7688 20.9359 25.7688 21.1859C25.7688 21.5359 25.6354 21.8526 25.3688 22.1359C25.1188 22.4026 24.7938 22.5359 24.3938 22.5359C24.2104 22.5359 24.0188 22.4776 23.8188 22.3609C23.6354 22.2276 23.4688 22.0526 23.3188 21.8359L18.8188 15.5859H17.6938V21.1359C17.6938 21.5359 17.5688 21.8693 17.3188 22.1359C17.0854 22.4026 16.7771 22.5359 16.3938 22.5359C16.0104 22.5359 15.6771 22.4026 15.3938 22.1359C15.1271 21.8693 14.9938 21.5443 14.9938 21.1609V7.83594C14.9938 7.46927 15.1271 7.1526 15.3938 6.88594C15.6771 6.6026 16.0104 6.46094 16.3938 6.46094C16.7604 6.46094 17.0688 6.59427 17.3188 6.86094C17.5688 7.11094 17.6938 7.4276 17.6938 7.81094V12.8859H18.8188L22.9938 7.06094C23.1438 6.84427 23.3021 6.69427 23.4688 6.61094C23.6354 6.51094 23.8354 6.46094 24.0688 6.46094C24.4688 6.46094 24.7854 6.6026 25.0188 6.88594C25.2521 7.16927 25.3688 7.49427 25.3688 7.86094C25.3688 8.14427 25.3021 8.3776 25.1688 8.56094L21.0688 14.1109L25.5688 20.4859ZM31.5443 10.7359C32.411 10.7359 33.2027 10.9276 33.9193 11.3109C34.6527 11.6943 35.2277 12.2276 35.6443 12.9109C36.0777 13.5776 36.2943 14.3276 36.2943 15.1609V21.2109C36.2943 21.6443 36.1693 21.9776 35.9193 22.2109C35.686 22.4276 35.3943 22.5359 35.0443 22.5359C34.7277 22.5359 34.461 22.4609 34.2443 22.3109C34.0443 22.1609 33.9027 21.9526 33.8193 21.6859C33.1193 22.3359 32.261 22.6609 31.2443 22.6609C30.4777 22.6609 29.7527 22.4693 29.0693 22.0859C28.4027 21.7026 27.8693 21.1776 27.4693 20.5109C27.0693 19.8276 26.8693 19.0693 26.8693 18.2359V15.1609C26.8693 14.3276 27.0777 13.5776 27.4943 12.9109C27.911 12.2276 28.4693 11.6943 29.1693 11.3109C29.886 10.9276 30.6777 10.7359 31.5443 10.7359ZM33.6193 15.2609C33.6193 14.6943 33.4193 14.2359 33.0193 13.8859C32.6193 13.5359 32.1277 13.3609 31.5443 13.3609C30.961 13.3609 30.4777 13.5359 30.0943 13.8859C29.7277 14.2193 29.5443 14.6776 29.5443 15.2609V18.1359C29.5443 18.7026 29.736 19.1693 30.1193 19.5359C30.5027 19.8859 30.9777 20.0609 31.5443 20.0609C32.1277 20.0609 32.6193 19.8859 33.0193 19.5359C33.4193 19.1859 33.6193 18.7193 33.6193 18.1359V15.2609ZM45.2992 10.9359C45.6992 10.9359 46.0159 11.0526 46.2492 11.2859C46.4992 11.5193 46.6242 11.8443 46.6242 12.2609C46.6242 12.6609 46.5076 12.9776 46.2742 13.2109C46.0409 13.4276 45.7159 13.5359 45.2992 13.5359H43.3492V21.2109C43.3492 21.5776 43.2159 21.8943 42.9492 22.1609C42.6826 22.4109 42.3576 22.5359 41.9742 22.5359C41.6242 22.5359 41.3242 22.4193 41.0742 22.1859C40.8242 21.9359 40.6992 21.6359 40.6992 21.2859V13.5359H38.7492C38.3492 13.5359 38.0242 13.4193 37.7742 13.1859C37.5409 12.9526 37.4242 12.6276 37.4242 12.2109C37.4242 11.8276 37.5409 11.5193 37.7742 11.2859C38.0242 11.0526 38.3492 10.9359 38.7492 10.9359H45.2992ZM51.9057 10.7359C52.7723 10.7359 53.564 10.9276 54.2807 11.3109C55.014 11.6943 55.589 12.2276 56.0057 12.9109C56.439 13.5776 56.6557 14.3276 56.6557 15.1609V21.2109C56.6557 21.6443 56.5307 21.9776 56.2807 22.2109C56.0473 22.4276 55.7557 22.5359 55.4057 22.5359C55.089 22.5359 54.8223 22.4609 54.6057 22.3109C54.4057 22.1609 54.264 21.9526 54.1807 21.6859C53.4807 22.3359 52.6223 22.6609 51.6057 22.6609C50.839 22.6609 50.114 22.4693 49.4307 22.0859C48.764 21.7026 48.2307 21.1776 47.8307 20.5109C47.4307 19.8276 47.2307 19.0693 47.2307 18.2359V15.1609C47.2307 14.3276 47.439 13.5776 47.8557 12.9109C48.2723 12.2276 48.8307 11.6943 49.5307 11.3109C50.2473 10.9276 51.039 10.7359 51.9057 10.7359ZM53.9807 15.2609C53.9807 14.6943 53.7807 14.2359 53.3807 13.8859C52.9807 13.5359 52.489 13.3609 51.9057 13.3609C51.3223 13.3609 50.839 13.5359 50.4557 13.8859C50.089 14.2193 49.9057 14.6776 49.9057 15.2609V18.1359C49.9057 18.7026 50.0973 19.1693 50.4807 19.5359C50.864 19.8859 51.339 20.0609 51.9057 20.0609C52.489 20.0609 52.9807 19.8859 53.3807 19.5359C53.7807 19.1859 53.9807 18.7193 53.9807 18.1359V15.2609ZM58.9797 20.2859C59.3964 20.0526 59.6964 19.6776 59.8797 19.1609C60.0797 18.6443 60.2047 18.0026 60.2547 17.2359C60.3047 16.4693 60.3297 15.3943 60.3297 14.0109V12.4359C60.3297 12.0359 60.4714 11.6943 60.7547 11.4109C61.038 11.1109 61.388 10.9609 61.8047 10.9609H67.0297C67.4464 10.9609 67.7797 11.1109 68.0297 11.4109C68.2797 11.6943 68.4047 12.0193 68.4047 12.3859V21.1359C68.4047 21.5526 68.2714 21.8943 68.0047 22.1609C67.738 22.4109 67.4047 22.5359 67.0047 22.5359C66.6214 22.5359 66.313 22.4109 66.0797 22.1609C65.8464 21.8943 65.7297 21.5526 65.7297 21.1359V13.5359H62.9797C62.9797 15.3193 62.9214 16.7609 62.8047 17.8609C62.688 18.9609 62.463 19.8693 62.1297 20.5859C61.813 21.2859 61.338 21.8359 60.7047 22.2359C60.438 22.4359 60.1047 22.5359 59.7047 22.5359C59.3047 22.5359 58.988 22.4276 58.7547 22.2109C58.538 21.9943 58.4297 21.7193 58.4297 21.3859C58.4297 20.9693 58.613 20.6026 58.9797 20.2859ZM70.424 15.2359C70.424 14.3859 70.6324 13.6193 71.049 12.9359C71.4657 12.2526 72.0324 11.7193 72.749 11.3359C73.4824 10.9359 74.2824 10.7359 75.149 10.7359C76.0157 10.7359 76.8074 10.9359 77.524 11.3359C78.2574 11.7193 78.8324 12.2526 79.249 12.9359C79.6657 13.6193 79.874 14.3859 79.874 15.2359V18.1359C79.874 19.0026 79.6574 19.7776 79.224 20.4609C78.8074 21.1443 78.2407 21.6859 77.524 22.0859C76.8074 22.4693 76.0157 22.6609 75.149 22.6609C74.2657 22.6609 73.4657 22.4693 72.749 22.0859C72.0324 21.7026 71.4657 21.1693 71.049 20.4859C70.6324 19.7859 70.424 19.0026 70.424 18.1359V15.2359ZM73.124 18.0359C73.124 18.6526 73.3157 19.1526 73.699 19.5359C74.0824 19.9193 74.5657 20.1109 75.149 20.1109C75.7324 20.1109 76.2157 19.9193 76.599 19.5359C76.999 19.1526 77.199 18.6526 77.199 18.0359V15.3609C77.199 14.7443 76.999 14.2443 76.599 13.8609C76.2157 13.4776 75.7324 13.2859 75.149 13.2859C74.5657 13.2859 74.0824 13.4776 73.699 13.8609C73.3157 14.2276 73.124 14.7276 73.124 15.3609V18.0359ZM88.3295 10.9609C88.7628 10.9609 89.1128 11.0776 89.3795 11.3109C89.6462 11.5276 89.7795 11.8276 89.7795 12.2109C89.7795 12.6109 89.6462 12.9359 89.3795 13.1859C89.1128 13.4193 88.7628 13.5359 88.3295 13.5359H84.7545V21.1109C84.7545 21.5443 84.6378 21.8943 84.4045 22.1609C84.1712 22.4109 83.8628 22.5359 83.4795 22.5359C83.0462 22.5359 82.7045 22.4109 82.4545 22.1609C82.2045 21.8943 82.0795 21.5443 82.0795 21.1109V12.3859C82.0795 11.9859 82.2128 11.6526 82.4795 11.3859C82.7462 11.1026 83.0795 10.9609 83.4795 10.9609H88.3295Z" fill="white"/>
</svg>
