<svg width="31" height="31" viewBox="0 0 31 31" fill="none" xmlns="http://www.w3.org/2000/svg">
<path fill-rule="evenodd" clip-rule="evenodd" d="M15.0312 30.25C23.3155 30.25 30.0312 23.5343 30.0312 15.25C30.0312 6.96573 23.3155 0.25 15.0312 0.25C6.74698 0.25 0.03125 6.96573 0.03125 15.25C0.03125 23.5343 6.74698 30.25 15.0312 30.25ZM14.8994 17.7223C16.563 17.7223 17.9116 16.3737 17.9116 14.7102C17.9116 13.0466 16.563 11.698 14.8994 11.698C13.2358 11.698 11.8873 13.0466 11.8873 14.7102C11.8873 16.3737 13.2358 17.7223 14.8994 17.7223ZM14.8994 20.4385C15.4896 20.4385 16.0589 20.3492 16.5947 20.1835C16.6115 20.2076 16.6292 20.2313 16.6479 20.2547L19.1759 23.4194C19.644 24.0054 20.4986 24.101 21.0846 23.6329C21.6706 23.1648 21.7662 22.3102 21.2981 21.7242L18.9393 18.7713C19.9821 17.7339 20.6277 16.2974 20.6277 14.7102C20.6277 11.5465 18.0631 8.98189 14.8994 8.98189C11.7358 8.98189 9.17114 11.5465 9.17114 14.7102C9.17114 17.8738 11.7358 20.4385 14.8994 20.4385Z" fill="#C42131"/>
</svg>
