<svg width="31" height="31" viewBox="0 0 31 31" fill="none" xmlns="http://www.w3.org/2000/svg">
<path fill-rule="evenodd" clip-rule="evenodd" d="M6.70056 0.293701C3.15016 0.293701 0.271988 3.17187 0.271988 6.72228V23.8651C0.271988 27.4155 3.15016 30.2937 6.70056 30.2937H23.8434C27.3938 30.2937 30.272 27.4155 30.272 23.8651V6.72228C30.272 3.17187 27.3938 0.293701 23.8434 0.293701H6.70056ZM13.4218 6.3222C13.004 6.07154 12.5288 5.94621 11.9961 5.94621C11.4948 5.94621 11.0039 6.06109 10.5235 6.29086V4.06625C10.5235 3.83648 10.44 3.64326 10.2728 3.4866C10.1162 3.31949 9.92297 3.23594 9.69319 3.23594C9.45298 3.23594 9.24932 3.31949 9.08221 3.4866C8.92555 3.64326 8.84721 3.83648 8.84721 4.06625V12.4947C8.84721 12.7245 8.93077 12.9229 9.09787 13.09C9.26498 13.2571 9.46864 13.3407 9.70886 13.3407C9.93863 13.3407 10.1319 13.2624 10.2885 13.1057C10.4452 12.9386 10.5235 12.7349 10.5235 12.4947V8.76614C10.5235 8.42148 10.6436 8.13427 10.8838 7.90449C11.1345 7.67472 11.4426 7.55984 11.8081 7.55984C12.1632 7.55984 12.4661 7.67472 12.7168 7.90449C12.9675 8.13427 13.0928 8.42148 13.0928 8.76614V12.4947C13.0928 12.7349 13.1711 12.9386 13.3278 13.1057C13.4844 13.2624 13.6777 13.3407 13.9074 13.3407C14.1476 13.3407 14.3461 13.2571 14.5027 13.09C14.6699 12.9229 14.7534 12.7245 14.7534 12.4947V8.75047C14.7534 8.22826 14.6385 7.75305 14.4088 7.32484C14.179 6.89663 13.85 6.56241 13.4218 6.3222ZM16.3486 7.32484C16.0875 7.75305 15.9569 8.23349 15.9569 8.76614V10.5834C15.9569 11.1265 16.0875 11.6174 16.3486 12.0561C16.6097 12.4843 16.9648 12.8185 17.4139 13.0587C17.863 13.2989 18.3643 13.419 18.9178 13.419C19.4609 13.419 19.957 13.2989 20.4061 13.0587C20.8552 12.808 21.2103 12.4686 21.4714 12.0404C21.743 11.6122 21.8788 11.1265 21.8788 10.5834V8.76614C21.8788 8.23349 21.7482 7.75305 21.4871 7.32484C21.226 6.89663 20.8657 6.56241 20.4061 6.3222C19.957 6.07154 19.4609 5.94621 18.9178 5.94621C18.3747 5.94621 17.8734 6.07154 17.4139 6.3222C16.9648 6.56241 16.6097 6.89663 16.3486 7.32484ZM18.0092 11.4607C17.769 11.2205 17.6489 10.9072 17.6489 10.5208V8.84447C17.6489 8.44759 17.769 8.13427 18.0092 7.90449C18.2494 7.66428 18.5523 7.54417 18.9178 7.54417C19.2834 7.54417 19.5863 7.66428 19.8265 7.90449C20.0771 8.14471 20.2025 8.45804 20.2025 8.84447V10.5208C20.2025 10.9072 20.0771 11.2205 19.8265 11.4607C19.5863 11.701 19.2834 11.8211 18.9178 11.8211C18.5523 11.8211 18.2494 11.701 18.0092 11.4607ZM15.5304 17.7765C15.0813 17.223 14.4599 16.9462 13.6661 16.9462C13.3006 16.9462 12.9611 17.0193 12.6478 17.1655C12.3345 17.3118 12.0682 17.5154 11.8488 17.7765C11.6295 17.5154 11.3632 17.3118 11.0499 17.1655C10.7365 17.0193 10.3971 16.9462 10.0315 16.9462C9.24823 16.9462 8.6268 17.2178 8.16726 17.7609C7.71816 18.304 7.49361 18.988 7.49361 19.8131V23.4634C7.49361 23.714 7.57716 23.9229 7.74427 24.09C7.92182 24.2571 8.13593 24.3407 8.38659 24.3407C8.61636 24.3407 8.80958 24.2571 8.96624 24.09C9.13335 23.9125 9.2169 23.7036 9.2169 23.4634V19.7661C9.2169 19.0037 9.50934 18.6225 10.0942 18.6225C10.6895 18.6225 10.9872 19.0037 10.9872 19.7661V23.4634C10.9872 23.714 11.0707 23.9229 11.2379 24.09C11.405 24.2571 11.6086 24.3407 11.8488 24.3407C12.0891 24.3407 12.2927 24.2571 12.4598 24.09C12.6269 23.9229 12.7105 23.714 12.7105 23.4634V19.7661C12.7105 19.0037 13.0134 18.6225 13.6191 18.6225C13.922 18.6225 14.1413 18.7269 14.2771 18.9358C14.4233 19.1343 14.4964 19.411 14.4964 19.7661V23.4634C14.4964 23.714 14.5748 23.9229 14.7314 24.09C14.8881 24.2571 15.0865 24.3407 15.3268 24.3407C15.567 24.3407 15.7759 24.2571 15.9534 24.09C16.131 23.9229 16.2197 23.714 16.2197 23.4634V19.8131C16.2197 18.9985 15.99 18.3196 15.5304 17.7765ZM21.8829 17.3379C21.4338 17.0768 20.922 16.9462 20.3476 16.9462C19.7731 16.9462 19.2614 17.0715 18.8123 17.3222C18.3736 17.5729 18.0289 17.9123 17.7783 18.3405C17.5381 18.7687 17.418 19.2335 17.418 19.7348V21.6618C17.418 22.1422 17.5381 22.5965 17.7783 23.0247C18.0289 23.4425 18.3788 23.7819 18.8279 24.043C19.277 24.2937 19.7836 24.419 20.3476 24.419C20.9324 24.419 21.4181 24.2989 21.8045 24.0587C22.2014 23.808 22.4991 23.4999 22.6975 23.1344C22.8124 22.9568 22.8698 22.7741 22.8698 22.5861C22.8698 22.3876 22.7967 22.2257 22.6505 22.1004C22.5147 21.9646 22.3215 21.8968 22.0709 21.8968C21.956 21.8968 21.8568 21.9229 21.7732 21.9751C21.7001 22.0169 21.6165 22.09 21.5225 22.1944C21.3763 22.4033 21.2197 22.5652 21.0525 22.6801C20.8854 22.795 20.6348 22.8524 20.3006 22.8524C19.9559 22.8524 19.6687 22.7323 19.4389 22.4921C19.2091 22.2414 19.0943 21.9438 19.0943 21.5991V21.1918H22.6662C22.9064 21.1918 23.0735 21.1448 23.1675 21.0508C23.2719 20.9568 23.3242 20.7479 23.3242 20.4241V19.7661C23.3242 19.2648 23.1988 18.8001 22.9482 18.3718C22.6975 17.9332 22.3424 17.5885 21.8829 17.3379ZM21.6949 19.9385H19.0943V19.8288C19.0943 19.4424 19.2091 19.1238 19.4389 18.8732C19.6791 18.6225 19.982 18.4972 20.3476 18.4972C20.7236 18.4972 21.0421 18.6225 21.3032 18.8732C21.5643 19.1238 21.6949 19.4371 21.6949 19.8131V19.9385Z" fill="#C42131"/>
</svg>
