<svg width="35" height="36" viewBox="0 0 35 36" fill="none" xmlns="http://www.w3.org/2000/svg">
<path fill-rule="evenodd" clip-rule="evenodd" d="M17.5625 0.851562C8.04853 0.851562 0.335938 8.56416 0.335938 18.0781C0.335938 27.5921 8.04853 35.3047 17.5625 35.3047C27.0765 35.3047 34.7891 27.5921 34.7891 18.0781C34.7891 8.56416 27.0765 0.851562 17.5625 0.851562ZM10.4289 20.1462C10.0596 19.2883 9.875 18.376 9.875 17.4095C9.875 16.443 10.0596 15.5307 10.4289 14.6728C10.7981 13.8148 11.3004 13.0682 11.9357 12.4329C12.571 11.7976 13.3176 11.2953 14.1756 10.9261C15.0335 10.5568 15.9458 10.3722 16.9123 10.3722C17.8788 10.3722 18.7911 10.5568 19.649 10.9261C20.507 11.2953 21.2536 11.7976 21.8889 12.4329C22.5242 13.0682 23.0265 13.8148 23.3957 14.6728C23.765 15.5307 23.9496 16.443 23.9496 17.4095C23.9496 18.2674 23.8057 19.0792 23.5179 19.8449C23.2301 20.6105 22.831 21.2974 22.3206 21.9056L25.0573 24.6423C25.1225 24.7074 25.1713 24.778 25.2039 24.854C25.2365 24.9301 25.2528 25.0115 25.2528 25.0984C25.2528 25.1853 25.2365 25.2667 25.2039 25.3427C25.1713 25.4188 25.1225 25.4894 25.0573 25.5545C24.9921 25.6197 24.9216 25.6686 24.8455 25.7011C24.7695 25.7337 24.6881 25.75 24.6012 25.75C24.5143 25.75 24.4329 25.7337 24.3568 25.7011C24.2808 25.6686 24.2102 25.6197 24.1451 25.5545L21.4083 22.8178C20.8002 23.3282 20.1133 23.7273 19.3477 24.0151C18.582 24.3029 17.7702 24.4468 16.9123 24.4468C15.9458 24.4468 15.0335 24.2622 14.1756 23.8929C13.3176 23.5237 12.571 23.0214 11.9357 22.3861C11.3004 21.7508 10.7981 21.0042 10.4289 20.1462ZM14.6806 22.6875C15.3756 22.9916 16.1195 23.1436 16.9123 23.1436C17.7051 23.1436 18.449 22.9916 19.144 22.6875C19.8391 22.3943 20.4472 21.987 20.9685 21.4657C21.4898 20.9444 21.897 20.3363 22.1903 19.6412C22.4943 18.9462 22.6464 18.2023 22.6464 17.4095C22.6464 16.6167 22.4943 15.8728 22.1903 15.1778C21.897 14.4827 21.4898 13.8746 20.9685 13.3533C20.4472 12.832 19.8391 12.4248 19.144 12.1315C18.449 11.8275 17.7051 11.6754 16.9123 11.6754C16.1195 11.6754 15.3756 11.8275 14.6806 12.1315C13.9855 12.4248 13.3774 12.832 12.8561 13.3533C12.3348 13.8746 11.9275 14.4827 11.6343 15.1778C11.3302 15.8728 11.1782 16.6167 11.1782 17.4095C11.1782 18.2023 11.3302 18.9462 11.6343 19.6412C11.9275 20.3363 12.3348 20.9444 12.8561 21.4657C13.3774 21.987 13.9855 22.3943 14.6806 22.6875Z" fill="#C42131"/>
</svg>
